<svg version="1.1" preserveAspectRatio="none" xmlns="http://www.w3.org/2000/svg" width="500" height="500" viewBox="0 0 500 500"><rect width="100%" height="100%" fill="#FFE8ED" fill-opacity="1"/><svg viewBox="297.3727 206.302 311.7276 150" width="333" height="160.23605224561445" x="83.5px" y="169.882px" xmlns="http://www.w3.org/2000/svg" xmlns:xlink="http://www.w3.org/1999/xlink" preserveAspectRatio="none"><defs></defs><style>.aD-YM9nyY4color {fill:#EF0909;fill-opacity:1;}.aD6z1nYkhcolor {fill:#EF0909;fill-opacity:1;}.atBXipXk0bfillColor {fill:#EF0909;fill-opacity:1;}.icon3-str {stroke:#A20F0F;stroke-opacity:1;}.shapeStroke-str {stroke:#E12323;stroke-opacity:1;}</style><g opacity="1" transform="rotate(0 318.3727 206.302)">
<svg width="290.7276" height="120" x="318.3727" y="206.302" version="1.1" preserveAspectRatio="none" viewBox="1.9922 -30.3906 176.6602 72.918">
  <g transform="matrix(1 0 0 1 0 0)" class="aD6z1nYkhcolor"><path id="id-D6z1nYkh15" d="M15 0L15.35-1.54Q14.63-0.78 13.44-0.25L13.44-0.25Q12.17 0.31 10.45 0.31L10.45 0.31Q8.87 0.31 7.34-0.25Q5.82-0.82 4.64-1.94Q3.46-3.07 2.72-4.73Q1.99-6.39 1.99-8.55L1.99-8.55Q1.99-10.43 2.48-12.06Q2.97-13.69 3.83-15.05Q4.69-16.41 5.87-17.46Q7.05-18.52 8.45-19.24Q9.84-19.96 11.40-20.34Q12.95-20.72 14.55-20.72L14.55-20.72Q15.45-20.72 16.08-20.61Q16.72-20.49 17.54-20.25Q18.36-20.02 19.45-19.24L19.45-19.24L19.69-20.23L26.33-20.23L22.87-5.35L26.60-5.35L25.35 0L15 0ZM16.07-7.27L16.07-7.27L16.93-8.34L17.91-12.56Q17.68-13.01 17.30-13.43Q16.93-13.85 16.38-14.16Q15.82-14.47 15.17-14.64Q14.51-14.80 13.85-14.80L13.85-14.80Q12.79-14.80 11.84-14.38Q10.88-13.96 10.17-13.25Q9.45-12.54 9.02-11.56Q8.59-10.59 8.59-9.47L8.59-9.47Q8.59-8.54 8.89-7.83Q9.18-7.13 9.69-6.66Q10.20-6.19 10.86-5.96Q11.52-5.72 12.29-5.72L12.29-5.72Q12.93-5.72 13.60-5.89Q14.28-6.05 14.90-6.40Q15.53-6.74 16.07-7.27Z M31.05-25.04L32.29-30.39L42.81-30.39L37.03-5.35L40.72-5.35L39.49 0L29.16 0L34.94-25.04L31.05-25.04Z M56.45-0.96L56.58-1.54Q55.86-0.92 54.61-0.47L54.61-0.47Q53.30 0 51.68 0L51.68 0Q50.14 0 48.62-0.55Q47.11-1.09 45.92-2.17Q44.73-3.24 43.98-4.84Q43.24-6.45 43.24-8.55L43.24-8.55Q43.24-11.17 44.21-13.40Q45.18-15.63 46.87-17.26Q48.55-18.89 50.85-19.80Q53.14-20.72 55.80-20.72L55.80-20.72Q56.56-20.72 57.31-20.60Q58.07-20.47 58.73-20.26Q59.39-20.06 60.68-19.32L60.68-19.32L61.02-20.72L67.64-20.72L63.05-0.84Q62.36 2.15 61.14 4.09Q59.92 6.04 58.27 7.17Q56.62 8.30 54.57 8.75Q52.52 9.20 50.18 9.20L50.18 9.20Q47.07 9.20 44.79 8.49Q42.52 7.77 41.02 6.60L41.02 6.60L44.45 1.45Q45.63 2.29 47.15 2.84Q48.67 3.40 50.45 3.40L50.45 3.40Q51.45 3.40 52.38 3.22Q53.32 3.05 54.12 2.56Q54.92 2.07 55.53 1.22Q56.13 0.37 56.45-0.96L56.45-0.96ZM57.36-7.38L57.36-7.38Q57.79-7.79 58.14-8.34L58.14-8.34L59.20-12.87Q58.52-13.93 57.87-14.27Q57.23-14.61 56.58-14.77Q55.94-14.92 55.21-14.92L55.21-14.92Q54.16-14.92 53.20-14.50Q52.25-14.08 51.53-13.37Q50.82-12.66 50.39-11.69Q49.96-10.72 49.96-9.61L49.96-9.61Q49.96-8.67 50.25-7.97Q50.55-7.27 51.05-6.80Q51.56-6.33 52.23-6.08Q52.89-5.84 53.65-5.84L53.65-5.84Q54.30-5.84 54.95-6.01Q55.61-6.17 56.22-6.51Q56.84-6.86 57.36-7.38Z M89.65-8.59L75.21-8.59Q75.25-8.13 75.37-7.70L75.37-7.70Q75.57-6.95 76.03-6.40Q76.48-5.84 77.23-5.52Q77.97-5.20 79.02-5.20L79.02-5.20Q79.80-5.20 80.46-5.35Q81.11-5.51 81.70-5.79Q82.29-6.07 82.82-6.46Q83.36-6.86 83.89-7.32L83.89-7.32L88.18-3.55Q86.21-1.45 83.63-0.46Q81.05 0.53 78.09 0.53L78.09 0.53Q76.17 0.53 74.49-0.10Q72.81-0.72 71.56-1.88Q70.31-3.05 69.58-4.71Q68.85-6.37 68.85-8.44L68.85-8.44Q68.85-11.23 69.85-13.52Q70.86-15.80 72.56-17.43Q74.26-19.06 76.49-19.95Q78.73-20.84 81.21-20.84L81.21-20.84Q83.18-20.84 84.84-20.15Q86.50-19.45 87.71-18.29Q88.91-17.13 89.58-15.61Q90.25-14.08 90.25-12.44L90.25-12.44Q90.25-12.05 90.21-11.56Q90.18-11.07 90.10-10.56Q90.02-10.04 89.90-9.53Q89.79-9.02 89.65-8.59L89.65-8.59ZM76.05-13.28L76.05-13.28Q75.98-13.14 75.92-13.01L75.92-13.01L84.38-13.01Q84.34-13.54 84.03-14.03Q83.73-14.53 83.23-14.92Q82.73-15.31 82.06-15.56Q81.39-15.80 80.57-15.80L80.57-15.80Q79.59-15.80 78.70-15.51Q77.81-15.21 77.14-14.66Q76.46-14.10 76.05-13.28Z M114.22-20.23L112.38-12.36L106.02-12.36L106.50-14.39Q105.84-14.39 105.28-14.26Q104.73-14.12 104.21-13.85Q103.69-13.57 103.20-13.16L103.20-13.16Q102.87-12.89 102.54-12.56L102.54-12.56L100.86-5.35L105.10-5.35L103.87 0L92.95 0L96.39-14.88L92.66-14.88L93.91-20.23L104.26-20.23L103.87-18.48Q104.67-19.20 105.78-19.69L105.78-19.69Q107.01-20.23 108.67-20.23L108.67-20.23L114.22-20.23Z M115.02-14.88L116.27-20.23L126.66-20.23L123.22-5.35L126.95-5.35L125.70 0L115.31 0L118.75-14.88L115.02-14.88ZM120.70-26.76L120.70-26.76Q120.70-27.48 120.97-28.12Q121.23-28.75 121.70-29.22Q122.17-29.69 122.80-29.96Q123.44-30.23 124.18-30.23L124.18-30.23Q124.88-30.23 125.51-29.96Q126.13-29.69 126.60-29.22Q127.07-28.75 127.34-28.12Q127.62-27.48 127.62-26.76L127.62-26.76Q127.62-26.04 127.34-25.40Q127.07-24.77 126.60-24.30Q126.13-23.83 125.51-23.55Q124.88-23.28 124.18-23.28L124.18-23.28Q123.44-23.28 122.80-23.55Q122.17-23.83 121.70-24.30Q121.23-24.77 120.97-25.40Q120.70-26.04 120.70-26.76Z M130.21-14.88L131.46-20.23L141.74-20.23L141.43-18.57L141.43-18.59Q142.30-19.26 143.24-19.73Q144.18-20.20 145.18-20.46Q146.17-20.72 147.23-20.72L147.23-20.72Q148.93-20.72 150.20-20.16Q151.46-19.59 152.23-18.54Q152.99-17.48 153.19-15.95Q153.40-14.41 152.95-12.48L152.95-12.48L151.29-5.35L154.98-5.35L153.75 0L143.38 0L145.90-10.88Q146.07-11.62 146.01-12.24Q145.94-12.85 145.69-13.29Q145.45-13.73 145.03-13.96Q144.61-14.20 144.06-14.20L144.06-14.20Q143.07-14.20 141.60-13.44L141.60-13.44Q140.84-13.05 140.02-12.42L140.02-12.42L137.15 0L130.29 0L133.73-14.88L130.21-14.88Z M157.17-8.52L157.17-8.52Q157.17-11.31 158.17-13.58Q159.18-15.86 160.88-17.47Q162.58-19.08 164.81-19.96Q167.05-20.84 169.53-20.84L169.53-20.84Q171.45-20.84 173.12-20.14Q174.79-19.43 176.02-18.21Q177.25-16.99 177.95-15.34Q178.65-13.69 178.65-11.80L178.65-11.80Q178.65-9.12 177.71-6.88Q176.76-4.63 175.11-2.99Q173.46-1.35 171.20-0.43Q168.95 0.49 166.33 0.49L166.33 0.49Q164.36 0.49 162.69-0.22Q161.02-0.94 159.79-2.16Q158.55-3.38 157.86-5.02Q157.17-6.66 157.17-8.52ZM163.54-9.24L163.54-9.24Q163.54-8.38 163.79-7.67Q164.04-6.95 164.50-6.44Q164.96-5.92 165.60-5.63Q166.23-5.35 166.97-5.35L166.97-5.35Q167.99-5.35 168.95-5.79Q169.90-6.23 170.65-7.00Q171.41-7.77 171.86-8.82Q172.30-9.86 172.30-11.07L172.30-11.07Q172.30-12.07 172.02-12.80Q171.74-13.54 171.27-14.02Q170.80-14.51 170.18-14.76Q169.55-15 168.85-15L168.85-15Q167.73-15 166.77-14.54Q165.80-14.08 165.09-13.30Q164.38-12.52 163.96-11.47Q163.54-10.43 163.54-9.24Z M3.89 16.96L5.12 11.61L15.64 11.61L11.70 28.68L13.93 28.68L17.03 25.38L17.87 21.77L26.80 21.77L25.57 27.12L22.83 27.12L18.24 31.47L20.88 36.65L23.93 36.65L22.68 42L16.80 42L12.97 34.07L10.45 34.07L8.63 42L1.99 42L7.77 16.96L3.89 16.96Z M28.40 27.12L29.65 21.77L40.04 21.77L36.60 36.65L40.33 36.65L39.08 42L28.69 42L32.13 27.12L28.40 27.12ZM34.08 15.24L34.08 15.24Q34.08 14.52 34.35 13.88Q34.61 13.25 35.08 12.78Q35.55 12.31 36.18 12.04Q36.82 11.77 37.56 11.77L37.56 11.77Q38.26 11.77 38.89 12.04Q39.51 12.31 39.98 12.78Q40.45 13.25 40.72 13.88Q41.00 14.52 41.00 15.24L41.00 15.24Q41.00 15.96 40.72 16.60Q40.45 17.23 39.98 17.70Q39.51 18.17 38.89 18.45Q38.26 18.72 37.56 18.72L37.56 18.72Q36.82 18.72 36.18 18.45Q35.55 18.17 35.08 17.70Q34.61 17.23 34.35 16.60Q34.08 15.96 34.08 15.24Z M42.40 27.12L43.63 21.77L47.40 21.77L48.55 16.92L56.04 13.72L54.12 21.77L57.83 21.77L56.60 27.12L52.85 27.12L51.15 34.36Q50.86 35.46 50.90 36.10Q50.94 36.75 51.32 37.03Q51.70 37.31 52.21 37.31L52.21 37.31Q52.62 37.31 53.10 37.23Q53.57 37.16 54.12 37L54.12 37L54.20 41.47Q53.57 41.71 52.97 41.90Q52.36 42.10 51.69 42.22Q51.02 42.35 50.26 42.42Q49.51 42.49 48.63 42.49L48.63 42.49Q47.23 42.49 46.16 42.17Q45.10 41.84 44.48 41.08Q43.87 40.32 43.74 39.04Q43.61 37.76 44.08 35.85L44.08 35.85L46.13 27.12L42.40 27.12Z M74.82 28.95L74.82 28.95Q74.51 28.13 73.67 27.63Q72.83 27.12 71.86 27.12L71.86 27.12Q70.76 27.12 69.79 27.56Q68.83 28.00 68.11 28.77Q67.38 29.54 66.96 30.56Q66.54 31.59 66.54 32.76L66.54 32.76Q66.54 33.64 66.83 34.33Q67.11 35.03 67.58 35.53Q68.05 36.02 68.67 36.29Q69.30 36.55 69.98 36.55L69.98 36.55Q71.60 36.55 72.69 35.80Q73.77 35.05 74.47 33.84L74.47 33.84L79.79 36.73Q79.16 37.94 78.14 38.99Q77.13 40.05 75.78 40.83Q74.43 41.61 72.80 42.05Q71.17 42.49 69.34 42.49L69.34 42.49Q67.36 42.49 65.69 41.78Q64.02 41.06 62.79 39.84Q61.56 38.62 60.87 36.98Q60.18 35.34 60.18 33.48L60.18 33.48Q60.18 30.69 61.18 28.42Q62.19 26.14 63.89 24.53Q65.59 22.92 67.82 22.04Q70.06 21.16 72.54 21.16L72.54 21.16Q74.10 21.16 75.43 21.61Q76.76 22.06 77.83 22.84L77.83 22.84Q78.32 23.19 78.75 23.60L78.75 23.60L82.50 23.60L81.27 28.95L74.82 28.95Z M95.98 42L98.50 31.12Q98.65 30.38 98.58 29.76Q98.52 29.15 98.27 28.71Q98.03 28.27 97.61 28.04Q97.19 27.80 96.66 27.80L96.66 27.80Q95.66 27.80 94.20 28.56L94.20 28.56Q93.42 28.97 92.58 29.60L92.58 29.60L89.73 42L82.89 42L88.67 16.96L85.02 16.96L86.25 11.61L96.74 11.61L94.00 23.41L94.02 23.39Q94.90 22.70 95.84 22.21Q96.78 21.71 97.77 21.43Q98.77 21.16 99.82 21.16L99.82 21.16Q101.52 21.16 102.80 21.74Q104.08 22.31 104.83 23.40Q105.59 24.48 105.78 26.02Q105.98 27.57 105.53 29.52L105.53 29.52L103.89 36.65L107.62 36.65L106.37 42L95.98 42Z M130.61 33.41L116.17 33.41Q116.21 33.88 116.33 34.30L116.33 34.30Q116.52 35.05 116.98 35.60Q117.44 36.16 118.18 36.48Q118.93 36.80 119.98 36.80L119.98 36.80Q120.76 36.80 121.42 36.65Q122.07 36.49 122.66 36.21Q123.24 35.93 123.78 35.54Q124.32 35.14 124.84 34.68L124.84 34.68L129.14 38.45Q127.17 40.55 124.59 41.54Q122.01 42.53 119.04 42.53L119.04 42.53Q117.13 42.53 115.45 41.90Q113.77 41.28 112.52 40.12Q111.27 38.95 110.54 37.29Q109.80 35.63 109.80 33.56L109.80 33.56Q109.80 30.77 110.81 28.48Q111.82 26.20 113.52 24.57Q115.21 22.94 117.45 22.05Q119.69 21.16 122.17 21.16L122.17 21.16Q124.14 21.16 125.80 21.85Q127.46 22.55 128.66 23.71Q129.86 24.87 130.54 26.39Q131.21 27.92 131.21 29.56L131.21 29.56Q131.21 29.95 131.17 30.44Q131.13 30.93 131.05 31.44Q130.98 31.96 130.86 32.47Q130.74 32.98 130.61 33.41L130.61 33.41ZM117.01 28.72L117.01 28.72Q116.93 28.86 116.88 28.99L116.88 28.99L125.33 28.99Q125.29 28.46 124.99 27.97Q124.69 27.47 124.19 27.08Q123.69 26.69 123.02 26.44Q122.34 26.20 121.52 26.20L121.52 26.20Q120.55 26.20 119.66 26.49Q118.77 26.79 118.10 27.34Q117.42 27.90 117.01 28.72Z M133.61 27.12L134.86 21.77L145.14 21.77L144.82 23.43L144.82 23.41Q145.70 22.74 146.64 22.27Q147.58 21.80 148.57 21.54Q149.57 21.28 150.63 21.28L150.63 21.28Q152.32 21.28 153.59 21.84Q154.86 22.41 155.63 23.46Q156.39 24.52 156.59 26.05Q156.80 27.59 156.35 29.52L156.35 29.52L154.69 36.65L158.38 36.65L157.15 42L146.78 42L149.30 31.12Q149.47 30.38 149.40 29.76Q149.34 29.15 149.09 28.71Q148.85 28.27 148.43 28.04Q148.01 27.80 147.46 27.80L147.46 27.80Q146.46 27.80 145 28.56L145 28.56Q144.24 28.95 143.42 29.58L143.42 29.58L140.55 42L133.69 42L137.13 27.12L133.61 27.12Z"/></g>
</svg>
</g><g opacity="1" transform="rotate(0 297.3727 206.302)">
<svg width="3" height="150" x="297.3727" y="206.302" version="1.1" preserveAspectRatio="none" viewBox="0 0 3 150">
  <defs><rect x="0" y="0" width="3" height="150" rx="0px" ry="0px" id="id-tBXipXk0b1713565472646"></rect></defs><use class="atBXipXk0bfillColor shapeStroke-str" style="stroke-width:0;" xlink:href="#id-tBXipXk0b1713565472646"></use>
</svg>
</g><g opacity="1" transform="rotate(0 318.3727 342.302)">
<svg width="119.6288" height="14" x="318.3727" y="342.302" version="1.1" preserveAspectRatio="none" viewBox="2.0508 -30.3906 338.2891 39.5898">
  <g transform="matrix(1 0 0 1 0 0)" class="aD-YM9nyY4color"><path id="id-D-YM9nyY416" d="M15 0L15.31-1.37Q14.00-0.49 12.69-0.07Q11.37 0.35 9.96 0.35L9.96 0.35Q8.30 0.35 6.86-0.29Q5.41-0.94 4.35-2.05Q3.28-3.16 2.67-4.68Q2.05-6.19 2.05-7.93L2.05-7.93Q2.05-10.76 3.05-13.13Q4.04-15.49 5.75-17.19Q7.46-18.89 9.74-19.82Q12.01-20.76 14.57-20.76L14.57-20.76Q16.04-20.76 17.32-20.32Q18.61-19.88 19.43-19.18L19.43-19.18L19.69-20.23L23.61-20.23L19.71-3.36L22.85-3.36L22.09 0L15 0ZM10.88-3.01L10.88-3.01Q11.60-3.01 12.35-3.18Q13.11-3.36 13.79-3.63Q14.47-3.91 15.08-4.27Q15.68-4.63 16.15-5.02L16.15-5.02L18.67-15.84Q18.16-16.48 17.09-16.94Q16.02-17.40 14.28-17.40L14.28-17.40Q12.77-17.40 11.31-16.79Q9.84-16.17 8.69-15.01Q7.54-13.85 6.82-12.16Q6.09-10.47 6.09-8.32L6.09-8.32Q6.09-7.07 6.45-6.08Q6.80-5.10 7.42-4.41Q8.05-3.73 8.94-3.37Q9.82-3.01 10.88-3.01Z M30.92-27.03L31.72-30.39L39.57-30.39L33.32-3.36L36.68-3.36L35.92 0L28.61 0L34.82-27.03L30.92-27.03Z M55.41-1.25L55.41-1.25Q54.18-0.39 52.88-0.02Q51.58 0.35 50.08 0.35L50.08 0.35Q48.42 0.35 46.97-0.29Q45.53-0.94 44.46-2.05Q43.40-3.16 42.78-4.68Q42.17-6.19 42.17-7.93L42.17-7.93Q42.17-10.76 43.16-13.13Q44.16-15.49 45.87-17.19Q47.58-18.89 49.85-19.82Q52.13-20.76 54.69-20.76L54.69-20.76Q56.15-20.76 57.44-20.32Q58.73-19.88 59.55-19.18L59.55-19.18L59.80-20.23L63.77-20.23L59.12-0.23Q58.53 2.30 57.56 4.09Q56.58 5.88 55.17 7.01Q53.77 8.14 51.90 8.67Q50.04 9.20 47.67 9.20L47.67 9.20Q46.60 9.20 45.45 9.02Q44.30 8.85 43.19 8.49Q42.09 8.13 41.11 7.58Q40.14 7.03 39.39 6.29L39.39 6.29L41.91 3.44Q42.38 3.95 43.05 4.37Q43.71 4.79 44.51 5.10Q45.31 5.41 46.20 5.59Q47.09 5.76 48.01 5.76L48.01 5.76Q49.41 5.76 50.56 5.46Q51.72 5.16 52.63 4.40Q53.53 3.65 54.21 2.37Q54.88 1.09 55.41-1.25ZM50.99-3.01L50.99-3.01Q52.52-3.01 53.85-3.55Q55.17-4.10 56.29-5.04L56.29-5.04L58.79-15.82Q58.28-16.46 57.21-16.93Q56.13-17.40 54.39-17.40L54.39-17.40Q52.89-17.40 51.42-16.79Q49.96-16.17 48.81-15.01Q47.65-13.85 46.93-12.16Q46.21-10.47 46.21-8.32L46.21-8.32Q46.21-7.07 46.56-6.08Q46.91-5.10 47.54-4.41Q48.16-3.73 49.05-3.37Q49.94-3.01 50.99-3.01Z M87.07-9.43L71.52-9.43Q71.50-9.16 71.48-8.96Q71.46-8.77 71.46-8.59L71.46-8.59Q71.46-7.36 71.86-6.31Q72.26-5.25 72.98-4.48Q73.69-3.71 74.68-3.27Q75.66-2.83 76.83-2.83L76.83-2.83Q78.40-2.83 79.81-3.47Q81.23-4.10 82.19-5.31L82.19-5.31L85.08-3.20Q84.41-2.32 83.49-1.62Q82.58-0.92 81.46-0.42Q80.35 0.08 79.09 0.34Q77.83 0.61 76.52 0.61L76.52 0.61Q74.65 0.61 73.02-0.02Q71.38-0.64 70.16-1.84Q68.94-3.03 68.25-4.76Q67.56-6.48 67.56-8.67L67.56-8.67Q67.56-11.19 68.44-13.41Q69.33-15.63 70.91-17.28Q72.48-18.93 74.63-19.88Q76.77-20.84 79.27-20.84L79.27-20.84Q81.21-20.84 82.72-20.19Q84.24-19.53 85.29-18.46Q86.35-17.38 86.89-15.98Q87.44-14.57 87.44-13.09L87.44-13.09Q87.44-12.09 87.33-11.16Q87.22-10.23 87.07-9.43L87.07-9.43ZM78.75-17.52L78.75-17.52Q77.58-17.52 76.55-17.15Q75.52-16.78 74.69-16.11Q73.85-15.45 73.20-14.55Q72.56-13.65 72.15-12.60L72.15-12.60L83.67-12.60Q83.69-13.81 83.35-14.74Q83.01-15.66 82.35-16.28Q81.70-16.89 80.78-17.21Q79.86-17.52 78.75-17.52Z M108.98-20.12L107.69-14.65L103.73-14.65L104.29-17.03Q102.40-17.03 101.07-16.06Q99.74-15.10 98.88-13.52L98.88-13.52L96.54-3.36L99.90-3.36L99.14 0L91.81 0L95.72-16.88L91.85-16.88L92.65-20.23L100.29-20.23L99.65-17.46Q100.19-18.09 100.82-18.62Q101.44-19.16 102.14-19.55Q102.83-19.94 103.58-20.17Q104.33-20.39 105.09-20.39L105.09-20.39Q105.80-20.39 106.31-20.37Q106.81-20.35 107.39-20.30Q107.97-20.25 108.98-20.12L108.98-20.12Z M113.45-16.88L114.25-20.23L121.81-20.23L117.91-3.36L121.15-3.36L120.39 0L113.18 0L117.09-16.88L113.45-16.88ZM117.98-27.36L117.98-27.36Q117.98-27.89 118.19-28.36Q118.39-28.83 118.75-29.17Q119.10-29.51 119.57-29.72Q120.04-29.92 120.58-29.92L120.58-29.92Q121.11-29.92 121.58-29.72Q122.05-29.51 122.39-29.17Q122.73-28.83 122.94-28.36Q123.14-27.89 123.14-27.36L123.14-27.36Q123.14-26.84 122.94-26.36Q122.73-25.88 122.39-25.52Q122.05-25.16 121.58-24.94Q121.11-24.73 120.58-24.73L120.58-24.73Q120.04-24.73 119.57-24.94Q119.10-25.16 118.75-25.52Q118.39-25.88 118.19-26.36Q117.98-26.84 117.98-27.36Z M128.18-16.88L128.98-20.23L136.62-20.23L136.13-18.16Q137.51-19.32 139.17-19.96Q140.82-20.61 142.65-20.61L142.65-20.61Q144.21-20.61 145.47-20.14Q146.73-19.67 147.53-18.71Q148.34-17.75 148.59-16.33Q148.84-14.90 148.41-13.01L148.41-13.01L146.19-3.36L149.06-3.36L148.30 0L141.46 0L144.37-12.52Q144.92-14.82 144.02-16.00Q143.12-17.17 140.97-17.17L140.97-17.17Q139.45-17.17 138.08-16.51Q136.71-15.86 135.48-14.69L135.48-14.69L132.10 0L128.14 0L132.05-16.88L128.18-16.88Z M154.29-8.77L154.29-8.77Q154.29-10.45 154.71-11.99Q155.13-13.54 155.90-14.88Q156.67-16.23 157.76-17.32Q158.84-18.42 160.15-19.20Q161.46-19.98 162.95-20.41Q164.45-20.84 166.05-20.84L166.05-20.84Q168.06-20.84 169.78-20.13Q171.50-19.41 172.75-18.17Q174.00-16.93 174.71-15.26Q175.42-13.59 175.42-11.68L175.42-11.68Q175.42-9.98 174.99-8.42Q174.56-6.86 173.79-5.51Q173.02-4.16 171.95-3.05Q170.87-1.93 169.56-1.15Q168.24-0.37 166.73 0.06Q165.23 0.49 163.61 0.49L163.61 0.49Q161.58 0.49 159.88-0.22Q158.18-0.94 156.93-2.19Q155.68-3.44 154.98-5.13Q154.29-6.82 154.29-8.77ZM158.37-9.04L158.37-9.04Q158.37-7.68 158.77-6.55Q159.17-5.43 159.90-4.64Q160.62-3.85 161.64-3.41Q162.65-2.97 163.86-2.97L163.86-2.97Q165.29-2.97 166.64-3.59Q168.00-4.22 169.04-5.33Q170.07-6.45 170.71-8.01Q171.34-9.57 171.34-11.45L171.34-11.45Q171.34-12.81 170.92-13.91Q170.50-15 169.76-15.78Q169.02-16.56 168.01-16.98Q167.01-17.40 165.81-17.40L165.81-17.40Q164.37-17.40 163.03-16.79Q161.69-16.17 160.66-15.07Q159.62-13.96 159.00-12.42Q158.37-10.88 158.37-9.04Z M192.40-27.03L193.20-30.39L200.75-30.39L196.40-11.56L198.59-11.56L205.23-17.19L205.95-20.23L212.51-20.23L211.71-16.88L209.62-16.88L202.02-10.45L206.91-3.32L209.35-3.32L208.59 0L204.31 0L198.24-9.16L195.85-9.16L193.74 0L189.80 0L196.01-27.03L192.40-27.03Z M215.77-16.88L216.57-20.23L224.13-20.23L220.23-3.36L223.47-3.36L222.71 0L215.50 0L219.41-16.88L215.77-16.88ZM220.30-27.36L220.30-27.36Q220.30-27.89 220.51-28.36Q220.71-28.83 221.07-29.17Q221.42-29.51 221.89-29.72Q222.36-29.92 222.90-29.92L222.90-29.92Q223.43-29.92 223.90-29.72Q224.37-29.51 224.71-29.17Q225.05-28.83 225.26-28.36Q225.46-27.89 225.46-27.36L225.46-27.36Q225.46-26.84 225.26-26.36Q225.05-25.88 224.71-25.52Q224.37-25.16 223.90-24.94Q223.43-24.73 222.90-24.73L222.90-24.73Q222.36-24.73 221.89-24.94Q221.42-25.16 221.07-25.52Q220.71-25.88 220.51-26.36Q220.30-26.84 220.30-27.36Z M230.46-16.88L231.26-20.23L234.64-20.23L235.83-25.08L239.95-26.76L238.41-20.23L242.67-20.23L241.87-16.88L237.61-16.88L235.03-5.96Q234.93-5.57 234.84-5.17Q234.76-4.77 234.76-4.32L234.76-4.32Q234.76-3.44 235.24-3.08Q235.71-2.71 236.75-2.71L236.75-2.71Q237.86-2.71 239.43-3.36L239.43-3.36L239.76-0.57Q238.72-0.08 237.76 0.21Q236.81 0.49 235.64 0.49L235.64 0.49Q234.41 0.49 233.39 0.19Q232.37-0.12 231.71-0.81Q231.05-1.50 230.83-2.63Q230.62-3.75 230.99-5.39L230.99-5.39L233.80-16.88L230.46-16.88Z M261.61-14.28L261.61-14.28Q261.30-15.06 260.78-15.64Q260.26-16.23 259.60-16.62Q258.94-17.01 258.15-17.21Q257.37-17.40 256.53-17.40L256.53-17.40Q255.46-17.40 254.24-16.85Q253.02-16.29 251.97-15.21Q250.93-14.14 250.24-12.58Q249.56-11.02 249.56-9.00L249.56-9.00Q249.56-7.54 249.99-6.42Q250.42-5.29 251.14-4.53Q251.87-3.77 252.82-3.39Q253.78-3.01 254.85-3.01L254.85-3.01Q255.64-3.01 256.32-3.13Q257.00-3.26 257.62-3.56Q258.23-3.87 258.82-4.36Q259.40-4.84 259.97-5.57L259.97-5.57L262.80-3.44Q262.04-2.36 261.08-1.61Q260.13-0.86 259.07-0.39Q258.02 0.08 256.89 0.28Q255.77 0.49 254.68 0.49L254.68 0.49Q252.69 0.49 251.00-0.22Q249.31-0.94 248.09-2.19Q246.87-3.44 246.17-5.13Q245.48-6.82 245.48-8.77L245.48-8.77Q245.48-11.43 246.48-13.64Q247.47-15.86 249.09-17.46Q250.71-19.06 252.75-19.95Q254.80-20.84 256.89-20.84L256.89-20.84Q257.86-20.84 258.84-20.65Q259.81-20.47 260.71-20.07Q261.61-19.67 262.39-19.06Q263.17-18.46 263.80-17.64L263.80-17.64L266.24-17.64L265.69-14.28L261.61-14.28Z M281.96 0L284.87-12.52Q285.42-14.82 284.51-16.00Q283.60-17.17 281.47-17.17L281.47-17.17Q280.17-17.17 278.76-16.60Q277.35-16.04 276.06-15.10L276.06-15.10L272.59 0L268.64 0L274.85-27.03L270.95-27.03L271.75-30.39L279.60-30.39L276.77-18.16Q278.19-19.28 279.81-19.94Q281.44-20.61 283.15-20.61L283.15-20.61Q284.72-20.61 285.98-20.14Q287.24-19.67 288.03-18.71Q288.82-17.75 289.08-16.33Q289.35-14.90 288.92-13.01L288.92-13.01L286.69-3.36L289.56-3.36L288.80 0L281.96 0Z M314.68-9.43L299.13-9.43Q299.11-9.16 299.09-8.96Q299.07-8.77 299.07-8.59L299.07-8.59Q299.07-7.36 299.47-6.31Q299.87-5.25 300.58-4.48Q301.30-3.71 302.28-3.27Q303.27-2.83 304.44-2.83L304.44-2.83Q306.00-2.83 307.42-3.47Q308.84-4.10 309.79-5.31L309.79-5.31L312.68-3.20Q312.02-2.32 311.10-1.62Q310.18-0.92 309.07-0.42Q307.96 0.08 306.70 0.34Q305.44 0.61 304.13 0.61L304.13 0.61Q302.25 0.61 300.62-0.02Q298.99-0.64 297.77-1.84Q296.55-3.03 295.86-4.76Q295.16-6.48 295.16-8.67L295.16-8.67Q295.16-11.19 296.05-13.41Q296.94-15.63 298.51-17.28Q300.09-18.93 302.24-19.88Q304.38-20.84 306.88-20.84L306.88-20.84Q308.82-20.84 310.33-20.19Q311.84-19.53 312.90-18.46Q313.95-17.38 314.50-15.98Q315.05-14.57 315.05-13.09L315.05-13.09Q315.05-12.09 314.94-11.16Q314.83-10.23 314.68-9.43L314.68-9.43ZM306.36-17.52L306.36-17.52Q305.18-17.52 304.16-17.15Q303.13-16.78 302.29-16.11Q301.45-15.45 300.81-14.55Q300.16-13.65 299.75-12.60L299.75-12.60L311.28-12.60Q311.30-13.81 310.96-14.74Q310.61-15.66 309.96-16.28Q309.31-16.89 308.39-17.21Q307.47-17.52 306.36-17.52Z M319.46-16.88L320.26-20.23L327.90-20.23L327.41-18.16Q328.80-19.32 330.45-19.96Q332.10-20.61 333.93-20.61L333.93-20.61Q335.50-20.61 336.76-20.14Q338.02-19.67 338.82-18.71Q339.62-17.75 339.87-16.33Q340.13-14.90 339.70-13.01L339.70-13.01L337.47-3.36L340.34-3.36L339.58 0L332.74 0L335.65-12.52Q336.20-14.82 335.30-16.00Q334.40-17.17 332.25-17.17L332.25-17.17Q330.73-17.17 329.36-16.51Q328.00-15.86 326.77-14.69L326.77-14.69L323.39 0L319.42 0L323.33-16.88L319.46-16.88Z"/></g>
</svg>
</g></svg></svg>